<svg xmlns="http://www.w3.org/2000/svg" width="909.04" height="196.814" viewBox="0 0 909.04 196.814">
  <path id="logo2" d="M52.5,12.85A77.865,77.865,0,0,1,72.13,14.324,53.391,53.391,0,0,1,86.6,19.618,40.184,40.184,0,0,1,96.79,27.525a41.856,41.856,0,0,1,6.567,9.448,49.956,49.956,0,0,1,3.753,9.918,66.836,66.836,0,0,1,1.742,9.18,67.858,67.858,0,0,1,.469,7.371V67.8a49.177,49.177,0,0,1-3.015,17.758,47.8,47.8,0,0,1-7.974,13.737,51.624,51.624,0,0,1-11.459,10.119A79.022,79.022,0,0,1,73.4,116.448a94.011,94.011,0,0,1-13.871,4.423,94.391,94.391,0,0,1-12.8,2.144q0,7.237-.067,13.67t-.134,11.392q-.067,4.959-.268,8.108a13.373,13.373,0,0,1-.6,3.954,7.672,7.672,0,0,1-4.557,3.619,20.419,20.419,0,0,1-6.969,1.206,14.34,14.34,0,0,1-6.969-1.608q-2.948-1.608-2.278-4.557a157.119,157.119,0,0,0,2.479-16.351q1.005-9.515,1.675-20.371a53,53,0,0,1-11.258-3.82,41.85,41.85,0,0,1-9.18-5.83,26.255,26.255,0,0,1-6.232-7.572A19.956,19.956,0,0,1-.04,95.809,22.144,22.144,0,0,1,3.177,85.087a32.646,32.646,0,0,1,7.438-8.443A44.02,44.02,0,0,1,20.6,70.613a60.647,60.647,0,0,1,10.722-3.619q.67-11.66,1.608-20.84t2.814-14.005a7.319,7.319,0,0,1,4.088-4.155,14.6,14.6,0,0,1,5.964-1.34,8.711,8.711,0,0,1,4.892,1.206q1.809,1.206.6,3.753a28.43,28.43,0,0,0-1.407,5.361q-.6,3.351-1.139,7.84T47.873,54.8q-.335,5.495-.6,11.526A39.073,39.073,0,0,1,57.991,69a24.452,24.452,0,0,1,6.768,4.155,12.247,12.247,0,0,1,3.351,4.624,9.469,9.469,0,0,1,.737,3.954A4.879,4.879,0,0,1,66.9,85.154a11.835,11.835,0,0,1-3.552,1.876,9.846,9.846,0,0,1-3.418.536q-1.541-.067-1.675-.871a13.029,13.029,0,0,0,.2-1.541q.067-.871.067-1.541a10.238,10.238,0,0,0-2.613-6.9Q53.3,73.7,47.135,72.891,46.867,83.345,46.8,94.2t-.067,21.309A74.506,74.506,0,0,0,65.3,110.886a50.776,50.776,0,0,0,12.6-7.237,34.478,34.478,0,0,0,7.84-8.711,43.149,43.149,0,0,0,4.222-8.912,30.938,30.938,0,0,0,1.608-7.773q.2-3.485.2-5.361v-1.34a86.338,86.338,0,0,0-1.608-20.3A52.088,52.088,0,0,0,85,36.907a33.665,33.665,0,0,0-7.505-9.381A34.773,34.773,0,0,0,68.914,22.1a30.03,30.03,0,0,0-8.51-2.345,46.064,46.064,0,0,0-7.1-.335A64.382,64.382,0,0,0,36.883,23.1a49.1,49.1,0,0,0-10.789,5.629A28.17,28.17,0,0,0,19.8,34.7q-2.144,2.948-3.082,4.557a7.492,7.492,0,0,0-.469.8,2.551,2.551,0,0,1-.469.67,3.993,3.993,0,0,1-.4.536h.134a14.531,14.531,0,0,1-2.077.8,7.385,7.385,0,0,1-2.613.335A4.577,4.577,0,0,1,8.4,41.6a3.925,3.925,0,0,1-1.474-2.479A6.605,6.605,0,0,1,7.8,36.1a24.332,24.332,0,0,1,3.284-5.026,45.751,45.751,0,0,1,5.9-5.9,47.521,47.521,0,0,1,8.711-5.763,57.484,57.484,0,0,1,11.794-4.49A65.8,65.8,0,0,1,52.5,12.85ZM31.053,74.1a26.261,26.261,0,0,0-10.119,4.289,23.676,23.676,0,0,0-5.7,5.964,19.322,19.322,0,0,0-2.68,6.165q-.67,3.015-.938,4.892a12.419,12.419,0,0,0,1.139,6.969,18.14,18.14,0,0,0,4.155,5.428,25.179,25.179,0,0,0,5.964,3.954,43.078,43.078,0,0,0,6.567,2.546q.268-6.031.536-11.995t.536-11.727Zm84.969,17.557a6.181,6.181,0,0,1,2.278-.871,13.887,13.887,0,0,1,2.278-.2,41.464,41.464,0,0,1,1.407-4.758,16.786,16.786,0,0,1,3.284-5.495,17.99,17.99,0,0,1,6.3-4.423A25.683,25.683,0,0,1,142.022,74.1a21.429,21.429,0,0,1,10.856,2.747,20.537,20.537,0,0,1,6.768,6.5A23.913,23.913,0,0,1,163,91.721a36.628,36.628,0,0,1,.737,8.242v1.474l-.268,4.691a43.735,43.735,0,0,0,8.778-4.892,25.371,25.371,0,0,0,7.036-7.706h-.134a6.7,6.7,0,0,1,2.144-2.01,5.112,5.112,0,0,1,2.68-.938,1.922,1.922,0,0,1,1.943,1.005q.469,1.005-.737,3.686a33.041,33.041,0,0,1-4.49,7.17,41.881,41.881,0,0,1-5.629,5.629,47.5,47.5,0,0,1-6.232,4.356,42.159,42.159,0,0,1-6.433,3.082,54.5,54.5,0,0,1-2.814,9.247,29.988,29.988,0,0,1-5.093,8.443,24.225,24.225,0,0,1-8.175,6.1,26.846,26.846,0,0,1-12.062,2.211,30.733,30.733,0,0,1-12.4-2.412,21.457,21.457,0,0,1-7.773-5.83,20.651,20.651,0,0,1-4.021-8.108,37.987,37.987,0,0,1-1.139-9.247,43.294,43.294,0,0,1,.8-8.376A66.778,66.778,0,0,1,111.6,100.1a28.908,28.908,0,0,1,2.345-5.562A11.628,11.628,0,0,1,116.022,91.654Zm31.361,17.557a17.112,17.112,0,0,0,5.361-.4q.4-2.546.6-4.356t.2-2.345a58.8,58.8,0,0,0-.335-8.443,25.455,25.455,0,0,0-1.876-7.371,12.008,12.008,0,0,0-3.887-5.026,9.383,9.383,0,0,0-6.366-1.541,6.934,6.934,0,0,0-4.021,1.675,14.362,14.362,0,0,0-3.149,3.619,14.77,14.77,0,0,0-1.809,4.356,8.87,8.87,0,0,0-.134,4.021l.536,2.278a39.7,39.7,0,0,0,.871,4.222,12.03,12.03,0,0,0,2.144,4.356,12.278,12.278,0,0,0,4.356,3.418A18.081,18.081,0,0,0,147.383,109.211Zm.536,9.247a36.348,36.348,0,0,1-13.134-2.479,26.133,26.133,0,0,1-8.175-5.294v2.278a50.7,50.7,0,0,0,.469,6.9,21.56,21.56,0,0,0,1.742,6.165,11.773,11.773,0,0,0,3.418,4.423,9.29,9.29,0,0,0,5.495,1.809,8.815,8.815,0,0,0,4.423-1.139,12.2,12.2,0,0,0,3.552-3.082,23.94,23.94,0,0,0,2.747-4.423,48.125,48.125,0,0,0,2.144-5.16,12.917,12.917,0,0,0-1.407.067A4.142,4.142,0,0,1,147.919,118.458Zm39.67-60.175a23.376,23.376,0,0,0-3.552,2.01,26.525,26.525,0,0,0-5.763,5.294,35.962,35.962,0,0,0-5.361,8.912,31.975,31.975,0,0,0-2.345,12.866,52.383,52.383,0,0,0,.4,6.366,39.253,39.253,0,0,0,1.474,6.768q-.268-.268.134.6t.938,1.943q.938,1.876,2.345,4.892t3.149,6.768q1.742,3.753,3.552,8.041t3.418,8.577a60.065,60.065,0,0,0-7.371,7.907,22.711,22.711,0,0,0-4.155,8.309,11.714,11.714,0,0,0-.536,2.546q-.134,1.34-.134,2.412a11.044,11.044,0,0,0,4.021,9.046q4.021,3.283,13.268,3.015a20.984,20.984,0,0,0,5.361-.67,12.164,12.164,0,0,0,4.557-2.278,10.831,10.831,0,0,0,3.149-4.222,16.292,16.292,0,0,0,1.139-6.5,36.934,36.934,0,0,0-.67-6.3,41.9,41.9,0,0,0-1.809-5.629q-1.541-4.155-3.418-9.381l2.412-2.144q3.082-2.814,6.3-5.83a82.081,82.081,0,0,0,6.1-6.366q2.881-3.351,5.361-6.835a40.947,40.947,0,0,0,4.088-7.1,6.726,6.726,0,0,0,.134-3.485,2.284,2.284,0,0,0-1.407-1.675,3.017,3.017,0,0,0-2.278.268,5.867,5.867,0,0,0-2.345,2.345,76.193,76.193,0,0,1-9.918,12.531q-5.9,6.1-11.258,10.923l-8.711-22.65V99.7a51.592,51.592,0,0,1-1.742-12.33,31.872,31.872,0,0,1,.871-7.84A32.638,32.638,0,0,1,189,73.7a23.828,23.828,0,0,1,2.278-3.954,21.043,21.043,0,0,1,1.809-2.211,7.065,7.065,0,0,0,1.876-5.227,6.526,6.526,0,0,0-.335-2.077,3.233,3.233,0,0,0-1.139-1.608,4.687,4.687,0,0,0-2.144-.8,9.27,9.27,0,0,0-3.485.335Zm3.619,94.619q0,5.763-2.948,6.835a3.535,3.535,0,0,1-2.814-.469q-1.608-.871-1.608-4.892a20.731,20.731,0,0,1,.2-2.613,23.747,23.747,0,0,1,.737-3.418,13.4,13.4,0,0,1,1.541-4.155,40.954,40.954,0,0,1,2.613-4.021A45.186,45.186,0,0,1,191.208,152.9ZM204.61,30a9.16,9.16,0,0,1,2.345.871q2.345,1.005,5.294,2.479,3.351,1.608,7.639,3.753.536.268.536.67t-.536.67L185.177,56.407a1.985,1.985,0,0,1-1.742,0l-7.1-5.361q-.67-.4,0-1.072Q184.1,43.809,190.4,39.118q2.68-2.01,5.227-3.82t4.557-3.15a32.2,32.2,0,0,1,3.217-1.943Q204.61,29.6,204.61,30Zm39.8,39.938a24.582,24.582,0,0,1,10.521,1.943,16.9,16.9,0,0,1,9.65,11.593,30.283,30.283,0,0,1,.871,7.1,31.6,31.6,0,0,1-.737,7.17,27.966,27.966,0,0,1-1.273,4.356v-.134a7.415,7.415,0,0,1-2.881,3.217,13.3,13.3,0,0,1-3.887,1.675,11.864,11.864,0,0,1-3.283.4q-1.34-.067-1.072-.737A30.987,30.987,0,0,0,255,98.824a38.619,38.619,0,0,0,.8-7.706,30.411,30.411,0,0,0-.536-5.83,14.622,14.622,0,0,0-1.742-4.758,9.939,9.939,0,0,0-3.015-3.217,7.671,7.671,0,0,0-4.356-1.206q-2.01,0-3.753,2.412a27.045,27.045,0,0,0-3.15,6.031,57.187,57.187,0,0,0-2.412,8.041q-1.005,4.423-1.742,8.309t-1.139,6.835q-.4,2.948-.536,3.753-.268,2.278-.469,4.289t-.2,3.753a32.525,32.525,0,0,0,1.407,10.32,21.389,21.389,0,0,0,3.418,6.634,12.438,12.438,0,0,0,4.088,3.485,8.473,8.473,0,0,0,3.552,1.005q4.691,0,9.381-4.155a59.989,59.989,0,0,0,8.912-10.052,124.294,124.294,0,0,0,7.706-12.2q3.485-6.3,5.763-10.588,1.072-2.01,1.943-3.418a11.622,11.622,0,0,1,1.407-1.943,7.354,7.354,0,0,1,2.68-1.943,4.1,4.1,0,0,1,2.68-.268,3.276,3.276,0,0,1,1.943,1.541,5.16,5.16,0,0,1,.469,3.351,27.061,27.061,0,0,1-1.541,4.691,88.027,88.027,0,0,1-3.954,8.51,105.6,105.6,0,0,1-6.165,10.253,62.189,62.189,0,0,1-8.242,9.851,47.9,47.9,0,0,1-10.186,7.572,25.231,25.231,0,0,1-11.861,3.216,44.4,44.4,0,0,1-13.134-1.206,28.988,28.988,0,0,1-8.845-3.887,18.716,18.716,0,0,1-5.361-5.428,22.326,22.326,0,0,1-2.68-6.031,27.391,27.391,0,0,1-.938-5.629q-.134-2.613-.134-4.222v-1.072a31.472,31.472,0,0,1,.2-4.892,85.064,85.064,0,0,1,1.407-9.314,92.2,92.2,0,0,1,3.082-11.325,48.057,48.057,0,0,1,5.294-10.99,28.878,28.878,0,0,1,8.041-8.242A19.735,19.735,0,0,1,244.414,69.943Zm32.567,22.382a1.06,1.06,0,0,1,.134-.67q0-2.01,2.546-3.552a10.663,10.663,0,0,1,5.629-1.541,7.856,7.856,0,0,1,4.222,1.206,5.6,5.6,0,0,1,2.479,3.887,22.829,22.829,0,0,1,.469,4.088q.067,2.211.067,4.758,0,4.423-.268,9.516t-.67,10.186q-.268,5.093-.469,9.851t-.2,8.912a67.24,67.24,0,0,0,.67,10.521q.67,4.088,2.814,3.82,1.206-.268,2.814-3.015a59.69,59.69,0,0,0,3.418-7.1q1.809-4.356,3.619-9.851t3.552-10.923q1.742-5.428,3.284-10.454t2.613-8.644l1.742-5.763a3.011,3.011,0,0,1,1.943-1.943,5.848,5.848,0,0,1,2.747-.268,4.922,4.922,0,0,1,2.412,1.072,2.728,2.728,0,0,1,1.072,2.211,54.2,54.2,0,0,1-1.005,8.644q-1.005,5.7-2.881,12.464a132.573,132.573,0,0,1-4.691,13.8,73.88,73.88,0,0,1-6.5,12.732,41.225,41.225,0,0,1-8.108,9.381,14.759,14.759,0,0,1-9.65,3.686,12.636,12.636,0,0,1-7.84-3.753,24.17,24.17,0,0,1-5.093-8.108,45.986,45.986,0,0,1-2.747-10.923,93.207,93.207,0,0,1-.8-12.33q0-5.361.335-10.588t.8-9.582q.469-4.356.938-7.438T276.981,92.324Zm-.4-18.227a9.314,9.314,0,0,1,2.479-6.567,7.838,7.838,0,0,1,5.964-2.68,7.7,7.7,0,0,1,5.83,2.68,9.314,9.314,0,0,1,2.479,6.567,9.554,9.554,0,0,1-2.479,6.634,7.621,7.621,0,0,1-5.83,2.747,7.756,7.756,0,0,1-5.964-2.747A9.554,9.554,0,0,1,276.579,74.1Zm65.67,1.34a31.912,31.912,0,0,1,9.381,1.206A21.655,21.655,0,0,1,358,79.659a14.994,14.994,0,0,1,3.887,4.021,17.956,17.956,0,0,1,2.077,4.423,16.313,16.313,0,0,1,.737,4.155,22.626,22.626,0,0,1-.067,3.149,32.452,32.452,0,0,1-4.758,12.933,27.646,27.646,0,0,1-7.773,7.84,28.022,28.022,0,0,1-9.18,3.887,41.549,41.549,0,0,1-8.979,1.072,38.7,38.7,0,0,1-6.165-.4v.808a57.563,57.563,0,0,0,.6,8.494,29.585,29.585,0,0,0,1.876,7.077,13.9,13.9,0,0,0,3.216,4.853,6.372,6.372,0,0,0,4.49,1.82,26.476,26.476,0,0,0,10.253-2.546,37.811,37.811,0,0,0,8.711-5.763,51.576,51.576,0,0,0,7.17-7.773,78.335,78.335,0,0,0,5.629-8.577q2.412-4.289,4.155-8.175t2.814-6.433l1.206-2.814a4.372,4.372,0,0,1,2.144-1.474,8.4,8.4,0,0,1,2.881-.536,3.477,3.477,0,0,1,2.345.8,3.057,3.057,0,0,1,.8,2.68,45.956,45.956,0,0,1-2.01,6.768,74.87,74.87,0,0,1-4.557,9.985,101.924,101.924,0,0,1-7.036,11.191,67.774,67.774,0,0,1-9.247,10.434,46.028,46.028,0,0,1-11.392,7.706A29.3,29.3,0,0,1,338.5,152.1a32.089,32.089,0,0,1-11.258-2.01,27.255,27.255,0,0,1-7.907-4.691,23.687,23.687,0,0,1-5.16-6.3,36.547,36.547,0,0,1-2.948-6.634,33.6,33.6,0,0,1-1.34-5.629,30.342,30.342,0,0,1-.335-3.552v-1.072q0-2.01.2-6.232a73.9,73.9,0,0,1,1.139-9.448,66.194,66.194,0,0,1,2.948-10.789,35.628,35.628,0,0,1,5.629-10.119,27.951,27.951,0,0,1,9.18-7.438A28.252,28.252,0,0,1,342.25,75.438Zm3.216,7.1a12.732,12.732,0,0,0-6.7,3.753,28.16,28.16,0,0,0-5.361,7.84,53.918,53.918,0,0,0-3.686,10.521,79.383,79.383,0,0,0-1.943,11.66q.8,0,1.541.067t1.809.067a24.642,24.642,0,0,0,6.165-.871,18.449,18.449,0,0,0,11.66-9.381A24.827,24.827,0,0,0,351.5,95.943a21,21,0,0,0-.2-4.356,17.741,17.741,0,0,0-1.139-4.289,12.272,12.272,0,0,0-1.943-3.284A3.942,3.942,0,0,0,345.466,82.541ZM395.858,29.2a17.564,17.564,0,0,1,5.83-4.155,16.129,16.129,0,0,1,6.366-1.34,15.231,15.231,0,0,1,5.763,1.139,16.75,16.75,0,0,1,5.026,3.15,14.363,14.363,0,0,1,3.485,4.892,15.245,15.245,0,0,1,1.273,6.232,129.837,129.837,0,0,1-2.948,27.273,148.339,148.339,0,0,1-6.9,22.717,124.4,124.4,0,0,1-8.644,17.758q-4.557,7.572-7.907,12.263a91.986,91.986,0,0,0,1.541,11.593,68.66,68.66,0,0,0,2.01,7.706,23.994,23.994,0,0,0,1.809,4.289q.8,1.34,1.072,1.34,1.876-.4,4.892-3.887a89.868,89.868,0,0,0,6.366-8.443q3.351-4.959,6.768-10.655t6.165-10.722q2.747-5.026,4.557-8.51a37.958,37.958,0,0,0,1.943-4.021,2.332,2.332,0,0,1,1.34-1.742,5.294,5.294,0,0,1,2.613-.67,5.677,5.677,0,0,1,2.68.67,3.784,3.784,0,0,1,1.809,2.278,22.446,22.446,0,0,1-1.809,5.964q-1.675,4.088-4.289,9.18T430.9,124.154q-3.149,5.562-6.031,10.32t-5.16,8.242a33.743,33.743,0,0,1-3.216,4.423,19.854,19.854,0,0,1-6.3,4.088,18.815,18.815,0,0,1-7.1,1.407,15.893,15.893,0,0,1-5.83-1.072,12.371,12.371,0,0,1-4.624-3.082,44.487,44.487,0,0,1-6.3-9.582,63.474,63.474,0,0,1-4.356-11.66,98.436,98.436,0,0,1-2.546-13,107.5,107.5,0,0,1-.871-13.737,160.06,160.06,0,0,1,1.675-23.052,194.186,194.186,0,0,1,4.222-21.242A120.267,120.267,0,0,1,390.1,39.319Q393.178,32.149,395.858,29.2Zm.938,80.145a105.487,105.487,0,0,0,6.1-14.541q2.479-7.438,4.155-14.608t2.613-13.8q.938-6.634,1.407-12.062t.6-9.381q.134-3.954.268-5.83V37.912Q412.075,30,410.2,30q-1.072,0-2.345,2.479a32.458,32.458,0,0,0-2.345,6.768q-2.144,9.784-3.753,19.1t-2.747,17.758q-1.139,8.443-1.675,15.747t-.536,12.933ZM469.3,95.273a8.468,8.468,0,0,0,6.366-2.278,35.791,35.791,0,0,0,4.088-5.093q1.34-2.01,2.881-4.021a19.6,19.6,0,0,1,3.753-3.686,18.891,18.891,0,0,1,5.361-2.747,26.555,26.555,0,0,1,7.706-1.206,10.886,10.886,0,0,1,6.835,1.943,12.452,12.452,0,0,1,4.423,5.964,31.288,31.288,0,0,1,1.072,5.562q.268,2.747.268,5.16a29.552,29.552,0,0,1-1.742,10.588,35.747,35.747,0,0,1-3.887,7.639,32.339,32.339,0,0,1-5.629,6.433A14.241,14.241,0,0,1,502,122.01q.536,1.407,1.206,3.284a168.668,168.668,0,0,0,11.66-12.866A44.362,44.362,0,0,0,522.374,99.7a3.79,3.79,0,0,1,2.077-1.876,7.554,7.554,0,0,1,3.284-.8,5.81,5.81,0,0,1,2.747.67,2.608,2.608,0,0,1,1.273,2.546A14.5,14.5,0,0,1,529.544,107a68.131,68.131,0,0,1-5.83,8.577q-3.618,4.624-8.376,9.784t-9.716,10.387q.8,5.629,1.206,11.258t.4,9.918v3.284a7.251,7.251,0,0,1-.268,2.211q-2.68,12.866-6.9,19.9t-8.577,10.253a19.123,19.123,0,0,1-8.242,3.82,42.155,42.155,0,0,1-6.031.6,24.579,24.579,0,0,1-8.51-1.273,16.531,16.531,0,0,1-5.629-3.351,11.843,11.843,0,0,1-3.15-4.758,16.139,16.139,0,0,1-.938-5.361,12.356,12.356,0,0,1,.2-2.278q.2-1.072.469-2.144a43.109,43.109,0,0,1,5.16-11.727,93.281,93.281,0,0,1,8.175-11.124q4.624-5.428,9.918-10.521t10.655-9.918L494.1,134a53.015,53.015,0,0,0-2.412-10.722q-.8,0-3.082-.2a22.96,22.96,0,0,1-4.691-.938,11.584,11.584,0,0,1-4.155-2.211,4.506,4.506,0,0,1-1.474-4.155q.4-3.351,2.948-4.423a14.365,14.365,0,0,1,5.629-1.072,13.253,13.253,0,0,1,1.876.134q.938.134,1.742.268l1.876.268q.268-.8.67-2.613t.8-4.155q.4-2.345.737-5.026A43.182,43.182,0,0,0,494.9,93.8a21.834,21.834,0,0,0-.737-6.031q-.737-2.546-3.015-2.546-1.072,0-1.541,1.608t-.871,3.753q-.4,2.144-1.005,4.49a10.531,10.531,0,0,1-6.3,7.237,15.529,15.529,0,0,1-7.036.871,17.612,17.612,0,0,1-7.84-2.077q-3.15-1.809-3.15-3.284,0-1.072,1.407-1.809A10.2,10.2,0,0,1,469.3,95.273Zm8.979,93.949a8.275,8.275,0,0,0,7.639-2.747,25.331,25.331,0,0,0,5.227-9.314,70.709,70.709,0,0,0,3.015-13.469,115.477,115.477,0,0,0,1.005-15.211v-2.01q-5.093,5.227-9.65,10.32t-8.108,9.784a61.349,61.349,0,0,0-5.629,8.711,15.718,15.718,0,0,0-2.077,6.969,5.68,5.68,0,0,0,1.943,4.423Q473.59,188.417,478.281,189.221ZM615.384,12.85a77.865,77.865,0,0,1,19.634,1.474,53.391,53.391,0,0,1,14.474,5.294,40.184,40.184,0,0,1,10.186,7.907,41.857,41.857,0,0,1,6.567,9.448A49.958,49.958,0,0,1,670,46.891a66.837,66.837,0,0,1,1.742,9.18,67.853,67.853,0,0,1,.469,7.371V67.8a49.177,49.177,0,0,1-3.016,17.758,47.8,47.8,0,0,1-7.974,13.737,51.626,51.626,0,0,1-11.459,10.119,79.018,79.018,0,0,1-13.469,7.036,96.6,96.6,0,0,1-26.67,6.567q0,7.237-.067,13.67t-.134,11.392q-.067,4.959-.268,8.108a13.374,13.374,0,0,1-.6,3.954,7.672,7.672,0,0,1-4.557,3.619,20.419,20.419,0,0,1-6.969,1.206,14.34,14.34,0,0,1-6.969-1.608q-2.948-1.608-2.278-4.557a157.11,157.11,0,0,0,2.479-16.351q1.005-9.515,1.675-20.371a53,53,0,0,1-11.258-3.82,41.852,41.852,0,0,1-9.18-5.83,26.255,26.255,0,0,1-6.232-7.572,19.956,19.956,0,0,1-2.412-9.046,22.145,22.145,0,0,1,3.216-10.722,32.646,32.646,0,0,1,7.438-8.443,44.018,44.018,0,0,1,9.985-6.031,60.645,60.645,0,0,1,10.722-3.619q.67-11.66,1.608-20.84t2.814-14.005a7.319,7.319,0,0,1,4.088-4.155,14.6,14.6,0,0,1,5.964-1.34,8.711,8.711,0,0,1,4.892,1.206q1.809,1.206.6,3.753a28.43,28.43,0,0,0-1.407,5.361q-.6,3.351-1.139,7.84t-.871,9.985q-.335,5.495-.6,11.526A39.073,39.073,0,0,1,620.879,69a24.451,24.451,0,0,1,6.768,4.155A12.248,12.248,0,0,1,631,77.783a9.47,9.47,0,0,1,.737,3.954,4.879,4.879,0,0,1-1.943,3.418,11.834,11.834,0,0,1-3.552,1.876,9.846,9.846,0,0,1-3.418.536q-1.541-.067-1.675-.871a13.04,13.04,0,0,0,.2-1.541q.067-.871.067-1.541a10.238,10.238,0,0,0-2.613-6.9q-2.613-3.015-8.778-3.82-.268,10.454-.335,21.309t-.067,21.309a74.506,74.506,0,0,0,18.562-4.624,50.775,50.775,0,0,0,12.6-7.237,34.478,34.478,0,0,0,7.84-8.711,43.153,43.153,0,0,0,4.222-8.912,30.937,30.937,0,0,0,1.608-7.773q.2-3.485.2-5.361v-1.34a86.338,86.338,0,0,0-1.608-20.3,52.086,52.086,0,0,0-5.16-14.34,33.663,33.663,0,0,0-7.505-9.381A34.773,34.773,0,0,0,631.8,22.1a30.029,30.029,0,0,0-8.51-2.345,46.063,46.063,0,0,0-7.1-.335A64.383,64.383,0,0,0,599.771,23.1a49.106,49.106,0,0,0-10.789,5.629,28.171,28.171,0,0,0-6.3,5.964q-2.144,2.948-3.082,4.557a7.491,7.491,0,0,0-.469.8,2.552,2.552,0,0,1-.469.67,3.993,3.993,0,0,1-.4.536h.134a14.531,14.531,0,0,1-2.077.8,7.384,7.384,0,0,1-2.613.335,4.577,4.577,0,0,1-2.412-.8,3.925,3.925,0,0,1-1.474-2.479,6.606,6.606,0,0,1,.871-3.015,24.334,24.334,0,0,1,3.284-5.026,45.753,45.753,0,0,1,5.9-5.9,47.52,47.52,0,0,1,8.711-5.763,57.485,57.485,0,0,1,11.794-4.49A65.8,65.8,0,0,1,615.384,12.85ZM593.941,74.1a26.261,26.261,0,0,0-10.119,4.289,23.677,23.677,0,0,0-5.7,5.964,19.321,19.321,0,0,0-2.68,6.165q-.67,3.015-.938,4.892a12.42,12.42,0,0,0,1.139,6.969A18.139,18.139,0,0,0,579.8,107.8a25.178,25.178,0,0,0,5.964,3.954,43.08,43.08,0,0,0,6.567,2.546q.268-6.031.536-11.995t.536-11.727ZM714.426,94.737a1.06,1.06,0,0,1,.134-.67,3.321,3.321,0,0,1,1.005-1.541,10.334,10.334,0,0,1,2.144-1.608,12.988,12.988,0,0,1,2.881-1.206,11.438,11.438,0,0,1,3.216-.469,7.278,7.278,0,0,1,3.82,1.005A4.716,4.716,0,0,1,729.7,93.8a38.574,38.574,0,0,1,.536,7.237q0,4.825-.469,10.521t-1.139,11.593q-.536,5.629-1.005,10.789t-.469,9.314a30.488,30.488,0,0,0,.67,7.036q.67,2.747,2.278,2.479,1.206-.134,2.881-2.881a61.957,61.957,0,0,0,3.552-6.969q1.876-4.222,3.82-9.448t3.753-10.454q1.809-5.227,3.351-9.918t2.613-7.773l1.34-4.423a2.291,2.291,0,0,1,1.876-1.206,8.925,8.925,0,0,1,3.083,0,7.284,7.284,0,0,1,2.68.938q1.072.67.67,1.474v-.268l-1.072,3.753q-.8,3.619-2.278,9.046t-3.619,11.526q-2.144,6.1-4.825,12.263a66.287,66.287,0,0,1-6.031,11.057,33.908,33.908,0,0,1-7.3,7.907,12.91,12.91,0,0,1-8.376,2.881,9.867,9.867,0,0,1-5.16-2.278,17.378,17.378,0,0,1-3.82-4.691,32.322,32.322,0,0,1-2.747-6.5,46.794,46.794,0,0,1-1.675-7.84,23.516,23.516,0,0,1-5.093,6.366,14.776,14.776,0,0,1-8.041,3.552q-9.247.536-14.541-2.814a21.929,21.929,0,0,1-7.907-8.309,30.1,30.1,0,0,1-3.284-10.521q-.67-5.562-.8-9.582,0-2.68.335-6.9a55.594,55.594,0,0,1,1.541-9.046,65.516,65.516,0,0,1,3.284-9.717,34.5,34.5,0,0,1,5.495-8.912,27.962,27.962,0,0,1,8.376-6.634,27.044,27.044,0,0,1,11.66-2.881,27.61,27.61,0,0,1,8.778.938,16.623,16.623,0,0,1,5.428,2.68,11.208,11.208,0,0,1,2.948,3.351,16.965,16.965,0,0,1,1.34,3.082l.4,1.34v-.134q1.072,2.278-.335,3.485a5.465,5.465,0,0,1-3.686,1.206,7.432,7.432,0,0,1-2.814-.6,6.824,6.824,0,0,1-2.546-1.809q-.67-.536-.67-.8a1.3,1.3,0,0,0-.268-.67,15.841,15.841,0,0,0-2.211-3.351q-1.541-1.876-5.026-1.742-2.01.134-4.356,2.68a26.611,26.611,0,0,0-4.423,7.237,67.483,67.483,0,0,0-3.686,11.325,88.016,88.016,0,0,0-2.144,15.077q0,.8-.067,2.144t-.067,2.01A45.061,45.061,0,0,0,691.642,133a15.727,15.727,0,0,0,2.814,5.9,5.043,5.043,0,0,0,3.216,1.943q1.608.134,2.412.134a5.08,5.08,0,0,0,3.35-1.608,21.15,21.15,0,0,0,3.284-3.954,45.927,45.927,0,0,0,2.881-5.093q1.34-2.747,2.412-5.026,0-5.093.268-9.985t.67-9.046q.4-4.155.8-7.17T714.426,94.737Zm47.309-36.588a9.27,9.27,0,0,1,3.484-.335,4.687,4.687,0,0,1,2.144.8,3.233,3.233,0,0,1,1.139,1.608,6.526,6.526,0,0,1,.335,2.077,7.065,7.065,0,0,1-1.876,5.227,21.047,21.047,0,0,0-1.809,2.211,23.828,23.828,0,0,0-2.278,3.954,32.636,32.636,0,0,0-2.01,5.83,31.872,31.872,0,0,0-.871,7.84,51.593,51.593,0,0,0,1.742,12.33v-.134l8.711,22.65q5.361-4.825,11.258-10.923a76.193,76.193,0,0,0,9.918-12.531,5.867,5.867,0,0,1,2.345-2.345,3.017,3.017,0,0,1,2.278-.268,2.284,2.284,0,0,1,1.407,1.675,6.726,6.726,0,0,1-.134,3.485,40.947,40.947,0,0,1-4.088,7.1q-2.479,3.485-5.361,6.835a82.09,82.09,0,0,1-6.1,6.366q-3.217,3.015-6.3,5.83l-2.412,2.144q1.876,5.227,3.418,9.381a41.9,41.9,0,0,1,1.809,5.629,36.937,36.937,0,0,1,.67,6.3,16.292,16.292,0,0,1-1.139,6.5,10.831,10.831,0,0,1-3.15,4.222,12.164,12.164,0,0,1-4.557,2.278,20.984,20.984,0,0,1-5.361.67q-9.247.268-13.268-3.015a11.044,11.044,0,0,1-4.021-9.046q0-1.072.134-2.412a11.712,11.712,0,0,1,.536-2.546,22.712,22.712,0,0,1,4.155-8.309,60.063,60.063,0,0,1,7.371-7.907q-1.608-4.289-3.417-8.577t-3.552-8.041q-1.742-3.753-3.149-6.768t-2.345-4.892q-.536-1.072-.938-1.943t-.134-.6a39.251,39.251,0,0,1-1.474-6.768,52.379,52.379,0,0,1-.4-6.366A31.976,31.976,0,0,1,746.792,74.5a35.962,35.962,0,0,1,5.361-8.912,26.524,26.524,0,0,1,5.763-5.294,23.377,23.377,0,0,1,3.552-2.01Zm3.351,94.753a45.186,45.186,0,0,0-2.278-12.732,40.948,40.948,0,0,0-2.613,4.021,13.4,13.4,0,0,0-1.541,4.155,23.735,23.735,0,0,0-.737,3.418,20.719,20.719,0,0,0-.2,2.613q0,4.021,1.608,4.892a3.535,3.535,0,0,0,2.814.469Q765.086,158.665,765.086,152.9Zm24.258-86.98a4.808,4.808,0,0,1,.67-3.015,5.962,5.962,0,0,1,2.077-2.01,9.6,9.6,0,0,1,3.016-1.072,19.124,19.124,0,0,1,3.619-.335,21.888,21.888,0,0,1,4.892.536,7.9,7.9,0,0,1,3.418,1.474q1.608,1.206,1.608,10.588,0,4.959-.4,11.727t-1.072,14.742q-.67,7.974-1.675,16.753t-2.345,17.624q8.443-9.247,15.613-18.294a89.217,89.217,0,0,0,11.057-17.356,2.764,2.764,0,0,1,1.809-1.005,7.791,7.791,0,0,1,2.881-.134,4.9,4.9,0,0,1,2.412.938,1.781,1.781,0,0,1,.4,2.211,81.561,81.561,0,0,1-6.433,12.531q-4.021,6.5-9.046,13.067t-10.655,13.134q-5.629,6.567-11.124,12.732-1.474,8.175-3.15,15.747T793.3,180.51a117.982,117.982,0,0,1-4.021,11.392,35.892,35.892,0,0,1-4.222,7.773,27.5,27.5,0,0,1-8.711,7.572,19.28,19.28,0,0,1-8.845,2.345,12.327,12.327,0,0,1-8.912-3.284,11.779,11.779,0,0,1-3.418-8.912,19.788,19.788,0,0,1,1.742-7.907,55.826,55.826,0,0,1,4.825-8.644q3.082-4.624,7.036-9.583t8.577-10.119q4.624-5.16,9.448-10.387.938-9.381,1.474-19.232t.8-19.1q.268-9.247.4-17.49t.134-14.541q0-6.433-.134-10.32T789.344,65.922Zm-15.68,132.413q3.619-2.814,6.232-10.588a118.569,118.569,0,0,0,4.356-18.361,172.585,172.585,0,0,0-11.258,15.01q-4.691,7.1-5.763,12.464a5.228,5.228,0,0,0,.067,2.479,1.6,1.6,0,0,0,1.675,1.407,5.642,5.642,0,0,0,1.876-.469A9.676,9.676,0,0,0,773.663,198.335ZM791.488,47.159a9.411,9.411,0,0,1,2.546-6.634,7.774,7.774,0,0,1,11.861,0,9.554,9.554,0,0,1,2.479,6.634,9.313,9.313,0,0,1-2.479,6.567,7.9,7.9,0,0,1-11.861,0A9.176,9.176,0,0,1,791.488,47.159Zm72.1,47.577a1.06,1.06,0,0,1,.134-.67,3.322,3.322,0,0,1,1.005-1.541,10.334,10.334,0,0,1,2.144-1.608,12.99,12.99,0,0,1,2.881-1.206,11.439,11.439,0,0,1,3.217-.469,7.279,7.279,0,0,1,3.82,1.005A4.715,4.715,0,0,1,878.87,93.8a38.573,38.573,0,0,1,.536,7.237q0,4.825-.469,10.521T877.8,123.149q-.536,5.629-1.005,10.789t-.469,9.314a30.488,30.488,0,0,0,.67,7.036q.67,2.747,2.278,2.479,1.206-.134,2.881-2.881a61.946,61.946,0,0,0,3.552-6.969q1.876-4.222,3.82-9.448t3.753-10.454q1.809-5.227,3.351-9.918t2.613-7.773l1.34-4.423a2.29,2.29,0,0,1,1.876-1.206,8.924,8.924,0,0,1,3.082,0,7.284,7.284,0,0,1,2.68.938q1.072.67.67,1.474v-.268l-1.072,3.753q-.67,2.948-1.809,7.17t-2.68,9.113q-1.541,4.892-3.485,10.052a93.833,93.833,0,0,1-4.356,9.851,81.42,81.42,0,0,1-5.16,8.711,26.885,26.885,0,0,1-5.964,6.433,24.458,24.458,0,0,0,.536,4.49,37.173,37.173,0,0,0,3.887,10.655,8.111,8.111,0,0,0,3.083,3.351,1.451,1.451,0,0,1,.871,1.407,2.8,2.8,0,0,1-.8,1.675,4.516,4.516,0,0,1-2.144,1.206,4.913,4.913,0,0,1-3.15-.268,16.847,16.847,0,0,1-5.16-3.217,35.448,35.448,0,0,1-4.825-5.16,29.987,29.987,0,0,1-3.619-6.031,14.91,14.91,0,0,1-1.407-6.1,15.941,15.941,0,0,1-6.3-7.773,51.581,51.581,0,0,1-3.351-12.2,23.514,23.514,0,0,1-5.093,6.366,14.776,14.776,0,0,1-8.041,3.552q-9.248.536-14.541-2.814a21.928,21.928,0,0,1-7.907-8.309,30.1,30.1,0,0,1-3.284-10.521q-.67-5.562-.8-9.582,0-2.68.335-6.9a55.587,55.587,0,0,1,1.541-9.046,65.516,65.516,0,0,1,3.284-9.717,34.5,34.5,0,0,1,5.495-8.912,27.963,27.963,0,0,1,8.376-6.634A27.044,27.044,0,0,1,853,73.561a27.61,27.61,0,0,1,8.778.938,16.621,16.621,0,0,1,5.428,2.68,11.208,11.208,0,0,1,2.948,3.351,16.967,16.967,0,0,1,1.34,3.082l.4,1.34v-.134q1.072,2.278-.335,3.485a5.466,5.466,0,0,1-3.686,1.206,7.432,7.432,0,0,1-2.814-.6,6.825,6.825,0,0,1-2.546-1.809q-.67-.536-.67-.8a1.3,1.3,0,0,0-.268-.67,15.836,15.836,0,0,0-2.211-3.351q-1.541-1.876-5.026-1.742-2.01.134-4.356,2.68a26.612,26.612,0,0,0-4.423,7.237,67.483,67.483,0,0,0-3.686,11.325,88.016,88.016,0,0,0-2.144,15.077q0,.8-.067,2.144T839.6,121A45.061,45.061,0,0,0,840.808,133a15.726,15.726,0,0,0,2.815,5.9,5.043,5.043,0,0,0,3.216,1.943q1.608.134,2.412.134a5.08,5.08,0,0,0,3.351-1.608,21.152,21.152,0,0,0,3.284-3.954,45.936,45.936,0,0,0,2.881-5.093q1.34-2.747,2.412-5.026,0-5.093.268-9.985t.67-9.046q.4-4.155.8-7.17T863.591,94.737Z" transform="translate(0.04 -12.779)" fill="#2e2e2e"/>
</svg>
